<?xml version="1.0" encoding="utf-8"?>
<!-- Generator: Adobe Illustrator 26.1.0, SVG Export Plug-In . SVG Version: 6.00 Build 0)  -->
<!DOCTYPE svg PUBLIC "-//W3C//DTD SVG 1.1//EN" "http://www.w3.org/Graphics/SVG/1.1/DTD/svg11.dtd" [
	<!ENTITY ns_extend "http://ns.adobe.com/Extensibility/1.0/">
	<!ENTITY ns_ai "http://ns.adobe.com/AdobeIllustrator/10.0/">
	<!ENTITY ns_graphs "http://ns.adobe.com/Graphs/1.0/">
	<!ENTITY ns_vars "http://ns.adobe.com/Variables/1.0/">
	<!ENTITY ns_imrep "http://ns.adobe.com/ImageReplacement/1.0/">
	<!ENTITY ns_sfw "http://ns.adobe.com/SaveForWeb/1.0/">
	<!ENTITY ns_custom "http://ns.adobe.com/GenericCustomNamespace/1.0/">
	<!ENTITY ns_adobe_xpath "http://ns.adobe.com/XPath/1.0/">
]>
<svg version="1.1" id="Ebene_1" xmlns:x="&ns_extend;" xmlns:i="&ns_ai;" xmlns:graph="&ns_graphs;"
	 xmlns="http://www.w3.org/2000/svg" xmlns:xlink="http://www.w3.org/1999/xlink" x="0px" y="0px" width="460.8px" height="352.7px"
	 viewBox="0 0 460.8 352.7" style="enable-background:new 0 0 460.8 352.7;" xml:space="preserve">
<style type="text/css">
	.st0{fill:none;stroke:#FFFFFF;stroke-width:0.5513;stroke-linejoin:round;stroke-miterlimit:10;}
	.st1{fill:none;stroke:#000000;stroke-width:0.5513;stroke-linejoin:round;stroke-miterlimit:10;}
	.st2{fill:#1F1E21;}
	.st3{fill:none;stroke:#B74315;stroke-width:1.1027;stroke-linejoin:round;stroke-miterlimit:10;}
	.st4{fill:none;stroke:#729EB2;stroke-width:1.1027;stroke-linejoin:round;stroke-miterlimit:10;}
	.st5{fill:none;stroke:#000000;stroke-width:1.1027;stroke-linejoin:round;stroke-miterlimit:10;}
</style>
<metadata>
	<sfw  xmlns="&ns_sfw;">
		<slices></slices>
		<sliceSourceBounds  bottomLeftOrigin="true" height="352.7" width="460.8" x="86.3" y="257.6"></sliceSourceBounds>
		<optimizationSettings>
			<targetSettings  fileFormat="PNG24Format" targetSettingsID="0">
				<PNG24Format  filtered="false" interlaced="false" matteColor="#FFFFFF" noMatteColor="false" transparency="true">
					</PNG24Format>
			</targetSettings>
		</optimizationSettings>
	</sfw>
</metadata>
<g>
	<polyline class="st0" points="50.5,138 50.5,4 456.3,4 456.3,138 50.5,138 	"/>
	<path class="st1" d="M50.5,138h405.8 M50.5,4h405.8 M50.5,138V4 M456.3,138V4 M50.5,138h405.8 M50.5,138V4 M50.5,138v-4.1 M50.5,4
		v4"/>
	<g>
		<g>
			<path class="st2" d="M45.2,150.2c0.3,0.2,0.9,0.5,1.6,0.5c1.2,0,1.6-0.8,1.6-1.4c0-1-0.9-1.4-1.9-1.4H46v-0.7h0.5
				c0.7,0,1.6-0.4,1.6-1.2c0-0.6-0.4-1.1-1.3-1.1c-0.6,0-1.1,0.3-1.4,0.5l-0.3-0.7c0.4-0.3,1.1-0.6,1.9-0.6c1.4,0,2,0.8,2,1.7
				c0,0.7-0.4,1.4-1.3,1.7v0c0.9,0.2,1.6,0.8,1.6,1.8c0,1.1-0.9,2.1-2.6,2.1c-0.8,0-1.5-0.3-1.9-0.5L45.2,150.2z"/>
		</g>
		<g>
			<path class="st2" d="M54.9,145h-2.7l-0.3,1.8c0.2,0,0.3,0,0.6,0c0.6,0,1.1,0.1,1.5,0.4c0.6,0.3,1,0.9,1,1.8
				c0,1.4-1.1,2.4-2.7,2.4c-0.8,0-1.4-0.2-1.8-0.4l0.2-0.7c0.3,0.2,0.9,0.4,1.5,0.4c0.9,0,1.7-0.6,1.7-1.6c0-0.9-0.6-1.6-2.1-1.6
				c-0.4,0-0.7,0-1,0.1l0.5-3.4h3.4V145z"/>
		</g>
	</g>
	<path class="st1" d="M91,138v-4.1 M91,4v4"/>
	<g>
		<path class="st2" d="M85.7,150.2c0.3,0.2,0.9,0.5,1.6,0.5c1.2,0,1.6-0.8,1.6-1.4c0-1-0.9-1.4-1.9-1.4h-0.5v-0.7H87
			c0.7,0,1.6-0.4,1.6-1.2c0-0.6-0.4-1.1-1.3-1.1c-0.6,0-1.1,0.3-1.4,0.5l-0.3-0.7c0.4-0.3,1.1-0.6,1.9-0.6c1.4,0,2,0.8,2,1.7
			c0,0.7-0.4,1.4-1.3,1.7v0c0.9,0.2,1.6,0.8,1.6,1.8c0,1.1-0.9,2.1-2.6,2.1c-0.8,0-1.5-0.3-1.9-0.5L85.7,150.2z"/>
		<path class="st2" d="M95.2,144.9c-0.2,0-0.5,0-0.7,0c-1.5,0.3-2.3,1.4-2.5,2.5h0c0.3-0.5,0.9-0.8,1.7-0.8c1.3,0,2.2,0.9,2.2,2.3
			c0,1.3-0.9,2.5-2.4,2.5c-1.5,0-2.5-1.2-2.5-3.1c0-1.4,0.5-2.5,1.2-3.2c0.6-0.6,1.4-0.9,2.3-1.1c0.3,0,0.5-0.1,0.7-0.1V144.9z
			 M94.9,149c0-1-0.6-1.6-1.5-1.6c-0.6,0-1.1,0.4-1.4,0.9c-0.1,0.1-0.1,0.3-0.1,0.4c0,1.2,0.6,2,1.6,2C94.4,150.7,94.9,150,94.9,149
			z"/>
	</g>
	<path class="st1" d="M131.6,138v-4.1 M131.6,4v4"/>
	<g>
		<path class="st2" d="M126.3,150.2c0.3,0.2,0.9,0.5,1.6,0.5c1.2,0,1.6-0.8,1.6-1.4c0-1-0.9-1.4-1.9-1.4h-0.5v-0.7h0.5
			c0.7,0,1.6-0.4,1.6-1.2c0-0.6-0.4-1.1-1.3-1.1c-0.6,0-1.1,0.3-1.4,0.5l-0.3-0.7c0.4-0.3,1.1-0.6,1.9-0.6c1.4,0,2,0.8,2,1.7
			c0,0.7-0.4,1.4-1.3,1.7v0c0.9,0.2,1.6,0.8,1.6,1.8c0,1.1-0.9,2.1-2.6,2.1c-0.8,0-1.5-0.3-1.9-0.5L126.3,150.2z"/>
		<path class="st2" d="M136.4,144.2v0.6l-3.1,6.5h-1l3.1-6.3v0h-3.5v-0.8H136.4z"/>
	</g>
	<path class="st1" d="M172.2,138v-4.1 M172.2,4v4"/>
	<g>
		<path class="st2" d="M166.8,150.2c0.3,0.2,0.9,0.5,1.6,0.5c1.2,0,1.6-0.8,1.6-1.4c0-1-0.9-1.4-1.9-1.4h-0.5v-0.7h0.5
			c0.7,0,1.6-0.4,1.6-1.2c0-0.6-0.4-1.1-1.3-1.1c-0.6,0-1.1,0.3-1.4,0.5l-0.3-0.7c0.4-0.3,1.1-0.6,1.9-0.6c1.4,0,2,0.8,2,1.7
			c0,0.7-0.4,1.4-1.3,1.7v0c0.9,0.2,1.6,0.8,1.6,1.8c0,1.1-0.9,2.1-2.6,2.1c-0.8,0-1.5-0.3-1.9-0.5L166.8,150.2z"/>
		<path class="st2" d="M172.2,149.5c0-0.9,0.5-1.5,1.4-1.9l0,0c-0.8-0.4-1.1-1-1.1-1.6c0-1.1,1-1.9,2.2-1.9c1.4,0,2.1,0.9,2.1,1.8
			c0,0.6-0.3,1.3-1.2,1.7v0c0.9,0.4,1.4,1,1.4,1.9c0,1.2-1.1,2.1-2.4,2.1C173.1,151.5,172.2,150.6,172.2,149.5z M176,149.5
			c0-0.9-0.6-1.3-1.6-1.6c-0.8,0.2-1.3,0.8-1.3,1.5c0,0.7,0.5,1.4,1.4,1.4C175.5,150.8,176,150.2,176,149.5z M173.4,145.9
			c0,0.7,0.5,1.1,1.4,1.3c0.6-0.2,1.1-0.7,1.1-1.3c0-0.6-0.3-1.2-1.2-1.2C173.8,144.7,173.4,145.3,173.4,145.9z"/>
	</g>
	<path class="st1" d="M212.8,138v-4.1 M212.8,4v4"/>
	<g>
		<path class="st2" d="M207.4,150.2c0.3,0.2,0.9,0.5,1.6,0.5c1.2,0,1.6-0.8,1.6-1.4c0-1-0.9-1.4-1.9-1.4h-0.5v-0.7h0.5
			c0.7,0,1.6-0.4,1.6-1.2c0-0.6-0.4-1.1-1.3-1.1c-0.6,0-1.1,0.3-1.4,0.5l-0.3-0.7c0.4-0.3,1.1-0.6,1.9-0.6c1.4,0,2,0.8,2,1.7
			c0,0.7-0.4,1.4-1.3,1.7v0c0.9,0.2,1.6,0.8,1.6,1.8c0,1.1-0.9,2.1-2.6,2.1c-0.8,0-1.5-0.3-1.9-0.5L207.4,150.2z"/>
		<path class="st2" d="M213.4,150.7c0.2,0,0.5,0,0.8,0c0.6-0.1,1.1-0.3,1.5-0.7c0.5-0.4,0.8-1.1,0.9-1.9h0c-0.4,0.5-1,0.8-1.7,0.8
			c-1.3,0-2.1-1-2.1-2.2c0-1.4,1-2.5,2.4-2.5c1.5,0,2.4,1.2,2.4,3c0,1.6-0.5,2.7-1.2,3.4c-0.6,0.5-1.3,0.9-2.1,1
			c-0.4,0.1-0.7,0.1-0.9,0.1V150.7z M213.8,146.5c0,0.9,0.5,1.5,1.4,1.5c0.6,0,1.2-0.3,1.4-0.7c0.1-0.1,0.1-0.2,0.1-0.4
			c0-1.2-0.5-2.2-1.5-2.2C214.4,144.8,213.8,145.5,213.8,146.5z"/>
	</g>
	<path class="st1" d="M253.4,138v-4.1 M253.4,4v4"/>
	<g>
		<path class="st2" d="M250.8,151.3v-2h-3.3v-0.6l3.2-4.6h1v4.5h1v0.8h-1v2H250.8z M250.8,148.6v-2.4c0-0.4,0-0.7,0-1.1h0
			c-0.2,0.4-0.4,0.7-0.6,1.1l-1.8,2.4v0H250.8z"/>
		<path class="st2" d="M258.2,147.7c0,2.4-0.9,3.8-2.5,3.8c-1.4,0-2.3-1.3-2.4-3.7c0-2.4,1-3.7,2.5-3.7
			C257.4,144.1,258.2,145.4,258.2,147.7z M254.3,147.8c0,1.9,0.6,2.9,1.5,2.9c1,0,1.5-1.2,1.5-3c0-1.8-0.5-2.9-1.5-2.9
			C255,144.8,254.3,145.8,254.3,147.8z"/>
	</g>
	<path class="st1" d="M293.9,138v-4.1 M293.9,4v4"/>
	<g>
		<path class="st2" d="M291.3,151.3v-2H288v-0.6l3.2-4.6h1v4.5h1v0.8h-1v2H291.3z M291.3,148.6v-2.4c0-0.4,0-0.7,0-1.1h0
			c-0.2,0.4-0.4,0.7-0.6,1.1l-1.8,2.4v0H291.3z"/>
		<path class="st2" d="M296.1,145.1L296.1,145.1l-1.3,0.7l-0.2-0.7l1.6-0.8h0.8v7.2h-0.9V145.1z"/>
	</g>
	<path class="st1" d="M334.5,138v-4.1 M334.5,4v4"/>
	<g>
		<path class="st2" d="M331.9,151.3v-2h-3.3v-0.6l3.2-4.6h1v4.5h1v0.8h-1v2H331.9z M331.9,148.6v-2.4c0-0.4,0-0.7,0-1.1h0
			c-0.2,0.4-0.4,0.7-0.6,1.1l-1.8,2.4v0H331.9z"/>
		<path class="st2" d="M334.6,151.3v-0.6l0.8-0.7c1.8-1.7,2.7-2.7,2.7-3.7c0-0.7-0.4-1.4-1.4-1.4c-0.7,0-1.2,0.3-1.5,0.6l-0.3-0.7
			c0.5-0.4,1.2-0.7,2-0.7c1.5,0,2.2,1.1,2.2,2.1c0,1.3-1,2.4-2.5,3.8l-0.6,0.5v0h3.2v0.8H334.6z"/>
	</g>
	<path class="st1" d="M375,138v-4.1 M375,4v4"/>
	<g>
		<path class="st2" d="M372.5,151.3v-2h-3.3v-0.6l3.2-4.6h1v4.5h1v0.8h-1v2H372.5z M372.5,148.6v-2.4c0-0.4,0-0.7,0-1.1h0
			c-0.2,0.4-0.4,0.7-0.6,1.1l-1.8,2.4v0H372.5z"/>
		<path class="st2" d="M375.4,150.2c0.3,0.2,0.9,0.5,1.6,0.5c1.2,0,1.6-0.8,1.6-1.4c0-1-0.9-1.4-1.9-1.4h-0.5v-0.7h0.5
			c0.7,0,1.6-0.4,1.6-1.2c0-0.6-0.4-1.1-1.3-1.1c-0.6,0-1.1,0.3-1.4,0.5l-0.3-0.7c0.4-0.3,1.1-0.6,1.9-0.6c1.4,0,2,0.8,2,1.7
			c0,0.7-0.4,1.4-1.3,1.7v0c0.9,0.2,1.6,0.8,1.6,1.8c0,1.1-0.9,2.1-2.6,2.1c-0.8,0-1.5-0.3-1.9-0.5L375.4,150.2z"/>
	</g>
	<path class="st1" d="M415.7,138v-4.1 M415.7,4v4"/>
	<g>
		<path class="st2" d="M413.1,151.3v-2h-3.3v-0.6l3.2-4.6h1v4.5h1v0.8h-1v2H413.1z M413.1,148.6v-2.4c0-0.4,0-0.7,0-1.1h0
			c-0.2,0.4-0.4,0.7-0.6,1.1l-1.8,2.4v0H413.1z"/>
		<path class="st2" d="M418.7,151.3v-2h-3.3v-0.6l3.2-4.6h1v4.5h1v0.8h-1v2H418.7z M418.7,148.6v-2.4c0-0.4,0-0.7,0-1.1h0
			c-0.2,0.4-0.4,0.7-0.6,1.1l-1.8,2.4v0H418.7z"/>
	</g>
	<path class="st1" d="M456.3,138v-4.1 M456.3,4v4"/>
	<g>
		<path class="st2" d="M453.7,151.3v-2h-3.3v-0.6l3.2-4.6h1v4.5h1v0.8h-1v2H453.7z M453.7,148.6v-2.4c0-0.4,0-0.7,0-1.1h0
			c-0.2,0.4-0.4,0.7-0.6,1.1l-1.8,2.4v0H453.7z"/>
		<path class="st2" d="M460.6,145h-2.7l-0.3,1.8c0.2,0,0.3,0,0.6,0c0.6,0,1.1,0.1,1.5,0.4c0.6,0.3,1,0.9,1,1.8
			c0,1.4-1.1,2.4-2.7,2.4c-0.8,0-1.4-0.2-1.8-0.4l0.2-0.7c0.3,0.2,0.9,0.4,1.5,0.4c0.9,0,1.7-0.6,1.7-1.6c0-0.9-0.6-1.6-2.1-1.6
			c-0.4,0-0.7,0-1,0.1l0.5-3.4h3.4V145z"/>
	</g>
	<path class="st1" d="M50.5,138h4 M456.3,138h-4.1"/>
	<g>
		<path class="st2" d="M31.7,138.8v0.7H26v-0.7H31.7z"/>
		<path class="st2" d="M37.4,138.4c0,2.4-0.9,3.8-2.5,3.8c-1.4,0-2.3-1.3-2.4-3.7c0-2.4,1-3.7,2.5-3.7
			C36.6,134.8,37.4,136.1,37.4,138.4z M33.5,138.5c0,1.9,0.6,2.9,1.5,2.9c1,0,1.5-1.2,1.5-3c0-1.8-0.5-2.9-1.5-2.9
			C34.1,135.5,33.5,136.6,33.5,138.5z"/>
		<path class="st2" d="M38.4,141.5c0-0.4,0.3-0.7,0.7-0.7c0.4,0,0.7,0.3,0.7,0.7c0,0.4-0.3,0.7-0.7,0.7
			C38.7,142.2,38.4,141.9,38.4,141.5z"/>
	</g>
	<g>
		<path class="st2" d="M44.7,142.1v-2h-3.3v-0.6l3.2-4.6h1v4.5h1v0.8h-1v2H44.7z M44.7,139.3v-2.4c0-0.4,0-0.7,0-1.1h0
			c-0.2,0.4-0.4,0.7-0.6,1.1l-1.8,2.4v0H44.7z"/>
	</g>
	<path class="st1" d="M50.5,104.5h4 M456.3,104.5h-4.1"/>
	<g>
		<path class="st2" d="M31.7,105.2v0.7H26v-0.7H31.7z"/>
		<path class="st2" d="M37.4,104.9c0,2.4-0.9,3.8-2.5,3.8c-1.4,0-2.3-1.3-2.4-3.7c0-2.4,1-3.7,2.5-3.7
			C36.6,101.2,37.4,102.6,37.4,104.9z M33.5,105c0,1.9,0.6,2.9,1.5,2.9c1,0,1.5-1.2,1.5-3c0-1.8-0.5-2.9-1.5-2.9
			C34.1,102,33.5,103,33.5,105z"/>
		<path class="st2" d="M38.4,107.9c0-0.4,0.3-0.7,0.7-0.7c0.4,0,0.7,0.3,0.7,0.7c0,0.4-0.3,0.7-0.7,0.7
			C38.7,108.6,38.4,108.3,38.4,107.9z"/>
	</g>
	<g>
		<path class="st2" d="M41.7,108.5v-0.6l0.8-0.7c1.8-1.7,2.7-2.7,2.7-3.7c0-0.7-0.4-1.4-1.4-1.4c-0.6,0-1.2,0.3-1.5,0.6l-0.3-0.7
			c0.5-0.4,1.2-0.7,2-0.7c1.5,0,2.2,1.1,2.2,2.1c0,1.3-1,2.4-2.5,3.8l-0.6,0.5v0h3.2v0.8H41.7z"/>
	</g>
	<path class="st1" d="M50.5,71h4 M456.3,71h-4.1"/>
	<g>
		<path class="st2" d="M46.5,71.4c0,2.4-0.9,3.8-2.5,3.8c-1.4,0-2.3-1.3-2.4-3.7c0-2.4,1-3.7,2.5-3.7C45.6,67.8,46.5,69.1,46.5,71.4
			z M42.6,71.5c0,1.9,0.6,2.9,1.5,2.9c1,0,1.5-1.2,1.5-3c0-1.8-0.5-2.9-1.5-2.9C43.2,68.5,42.6,69.6,42.6,71.5z"/>
	</g>
	<path class="st1" d="M50.5,37.5h4 M456.3,37.5h-4.1"/>
	<g>
		<path class="st2" d="M37.3,37.9c0,2.4-0.9,3.8-2.5,3.8c-1.4,0-2.3-1.3-2.4-3.7c0-2.4,1-3.7,2.5-3.7C36.4,34.3,37.3,35.6,37.3,37.9
			z M33.4,38c0,1.9,0.6,2.9,1.5,2.9c1,0,1.5-1.2,1.5-3c0-1.8-0.5-2.9-1.5-2.9C34,35,33.4,36,33.4,38z"/>
		<path class="st2" d="M38.2,41c0-0.4,0.3-0.7,0.7-0.7c0.4,0,0.7,0.3,0.7,0.7c0,0.4-0.3,0.7-0.7,0.7C38.5,41.7,38.2,41.4,38.2,41z"
			/>
	</g>
	<g>
		<path class="st2" d="M41.7,41.5v-0.6l0.8-0.7c1.8-1.7,2.7-2.7,2.7-3.7c0-0.7-0.4-1.4-1.4-1.4c-0.6,0-1.2,0.3-1.5,0.6L41.9,35
			c0.5-0.4,1.2-0.7,2-0.7c1.5,0,2.2,1.1,2.2,2.1c0,1.3-1,2.4-2.5,3.8l-0.6,0.5v0h3.2v0.8H41.7z"/>
	</g>
	<path class="st1" d="M50.5,4h4 M456.3,4h-4.1"/>
	<g>
		<path class="st2" d="M37.3,4.4c0,2.4-0.9,3.8-2.5,3.8c-1.4,0-2.3-1.3-2.4-3.7c0-2.4,1-3.7,2.5-3.7C36.4,0.8,37.3,2.1,37.3,4.4z
			 M33.4,4.5c0,1.9,0.6,2.9,1.5,2.9c1,0,1.5-1.2,1.5-3c0-1.8-0.5-2.9-1.5-2.9C34,1.6,33.4,2.6,33.4,4.5z"/>
		<path class="st2" d="M38.2,7.5c0-0.4,0.3-0.7,0.7-0.7c0.4,0,0.7,0.3,0.7,0.7c0,0.4-0.3,0.7-0.7,0.7C38.5,8.2,38.2,7.9,38.2,7.5z"
			/>
	</g>
	<g>
		<path class="st2" d="M44.7,8.1v-2h-3.3V5.5l3.2-4.6h1v4.5h1v0.8h-1v2H44.7z M44.7,5.4V3c0-0.4,0-0.7,0-1.1h0
			c-0.2,0.4-0.4,0.7-0.6,1.1l-1.8,2.4v0H44.7z"/>
	</g>
	<path class="st1" d="M50.5,138h405.8 M50.5,4h405.8 M50.5,138V4 M456.3,138V4"/>
	<polyline class="st3" points="50.5,69.3 50.9,68.6 51.2,68.4 51.7,70.4 52.1,68.1 52.5,67.4 52.9,67 53.3,66.9 53.7,67.1 
		54.1,66.6 54.5,66.2 54.9,67.1 55.3,67 55.7,66.2 56.1,66.2 56.6,66.1 56.9,65.9 57.4,65.9 57.8,65.6 58.1,65.4 58.6,70.8 59,70.8 
		59.4,68.7 59.8,65.9 60.1,64.9 60.6,65.1 61,64.8 61.4,64.8 61.8,64.1 62.3,64.2 62.6,64.2 63,64 63.5,63.8 63.8,63.4 64.3,62.7 
		64.6,59.9 65,59.4 65.5,58.4 65.8,59 66.3,57.2 66.7,58.3 67.1,57.3 67.5,56.8 67.9,57.5 68.3,56.4 68.7,56.4 69.2,55.6 69.5,55.2 
		69.9,55.5 70.3,56.2 70.7,55.8 71.2,57 71.5,54.9 72,55.5 72.4,54.9 72.7,57.5 73.2,55.1 73.6,55.2 74,54.6 74.4,54.7 74.8,55.1 
		75.2,55 75.6,53.6 76,53.2 76.4,54.8 76.9,53.6 77.2,54.4 77.6,54.4 78.1,54.8 78.4,53.8 78.9,55.1 79.3,55.5 79.6,55.5 80.1,54.9 
		80.5,55.8 80.9,54 81.3,55.3 81.7,54.5 82.1,54.4 82.5,54.9 82.9,54.4 83.3,52.4 83.8,54.2 84.1,54.9 84.5,54.9 85,53.8 85.3,53.5 
		85.8,55.3 86.1,54.3 86.6,55.1 87,53.7 87.3,55 87.8,54.2 88.2,54.9 88.6,54.1 89,53.8 89.4,54.9 89.8,53.8 90.2,55.3 90.7,54.9 
		91,55.1 91.5,56.2 91.8,55.2 92.2,55.5 92.7,56.5 93,56 93.5,54.4 93.9,58.8 94.2,58.4 94.7,58.3 95.1,58.9 95.5,63 95.9,63.3 
		96.3,63.4 96.7,63.7 97.1,63.7 97.5,64.3 97.9,65.2 98.4,64.3 98.7,64.5 99.1,65.1 99.6,69.4 99.9,64.8 100.4,65.1 100.8,65.1 
		101.1,65.4 101.6,65.6 102,68.4 102.4,70.6 102.8,70.1 103.2,66.1 103.6,65.4 104,65.3 104.4,65.3 104.8,65.8 105.3,65.5 105.6,66 
		106,66.2 106.5,66.5 106.8,66.9 107.3,65.9 107.7,66.5 108.1,65.9 108.5,66.3 108.8,66.9 109.3,66.7 109.7,67.1 110.1,67 
		110.5,67.7 110.9,68.4 111.3,68.3 111.7,68.5 112.2,68.4 112.5,68.5 113,69.5 113.3,69.9 113.7,70.5 114.2,70.5 114.5,70.8 
		115,70.8 115.4,70.7 115.7,70.8 116.2,70.8 116.6,70.8 117,70.6 117.4,69.5 117.9,70.5 118.2,70.4 118.6,70.8 119,70.8 119.4,70.8 
		119.9,70.8 120.2,70.8 120.6,70.4 121.1,70.4 121.4,70.6 121.9,70.1 122.3,70.1 122.7,70.7 123.1,70.5 123.5,69.6 123.9,70.4 
		124.3,70.6 124.7,70.3 125.1,70.5 125.5,70.7 125.9,70.5 126.3,70.3 126.8,70.3 127.1,70.2 127.6,70.7 128,70.8 128.3,70.8 
		128.8,70.8 129.2,70.8 129.6,70.8 130,70.4 130.3,70.7 130.8,69.8 131.2,69.9 131.6,70 132,69.6 132.5,70.8 132.8,70.8 133.2,70.4 
		133.7,70.2 134,70.8 134.5,70.1 134.9,70.6 135.2,70.6 135.7,70.5 136,70.3 136.5,70 136.9,70.7 137.3,70.8 137.7,70.8 138.1,70.6 
		138.5,70.8 138.9,68.5 139.4,70.4 139.7,70.3 140.1,70.5 140.5,69.6 140.9,70.2 141.4,70.8 141.7,69.3 142.2,56.4 142.6,53 
		142.9,50.6 143.4,50 143.8,49.4 144.2,49.7 144.6,49.2 145,50.2 145.4,48.7 145.8,48.7 146.2,48.6 146.6,50 147.1,49.1 147.4,48.8 
		147.8,49 148.3,49.1 148.6,48.7 149.1,48.1 149.5,49.4 149.8,48.2 150.3,50 150.7,49.1 151.1,48 151.5,48.7 151.8,47.1 152.3,49.2 
		152.7,47.9 153.1,48.6 153.5,47.8 154,48.1 154.3,48.8 154.7,48.6 155.2,47.9 155.5,48 156,48.2 156.4,48.2 156.7,49.2 157.2,47.8 
		157.5,48.1 158,48.7 158.4,48 158.8,49.2 159.2,47.3 159.6,48 160,47.5 160.4,48.2 160.9,47.9 161.2,48.5 161.6,47.6 162,49.2 
		162.4,48.1 162.9,70.6 163.2,47.6 163.7,47 164.1,48.1 164.4,47.9 164.9,47.1 165.3,47.1 165.7,46.7 166.1,47.4 166.5,46.9 
		166.9,46.7 167.3,47.1 167.7,47.3 168.1,46.6 168.6,47 168.9,47.3 169.3,46.4 169.8,47 170.1,46.3 170.6,46.3 171,46.5 171.3,46.3 
		171.8,46.4 172.2,47 172.6,46.5 173,46.2 173.4,46.9 173.8,46.7 174.2,46.7 174.6,60.3 175,47 175.5,46.6 175.8,47 176.2,46.3 
		176.7,46.9 177,46.1 177.5,45.8 177.9,46.7 178.3,46 178.7,46.4 179,46.2 179.5,45.3 179.9,46.4 180.3,46.9 180.7,47.4 181.1,46.5 
		181.5,46.7 181.9,45.8 182.4,46.3 182.7,46 183.2,45.8 183.6,46.2 183.9,46.1 184.4,45.8 184.7,45.9 185.2,46 185.6,46 185.9,45.9 
		186.4,45.8 186.8,45.5 187.2,46.3 187.6,46 188.1,46 188.4,46.3 188.8,46.7 189.2,45.7 189.6,46.7 190.1,46.2 190.4,47 190.8,46.4 
		191.3,46.6 191.6,46 192.1,46.4 192.5,45.9 192.9,46.1 193.3,46.7 193.7,46.2 194.1,46.5 194.5,46.1 194.9,46.5 195.3,46.1 
		195.7,45.9 196.1,46.5 196.5,46.5 197,45.7 197.3,46.2 197.8,46.6 198.2,46.8 198.5,46.4 199,46.8 199.4,45.9 199.8,46 200.2,45.8 
		200.6,45.9 201,46 201.4,46.6 201.8,46.9 202.2,46.2 202.6,46.5 203,46.6 203.4,46.5 203.9,46 204.2,46.2 204.7,46.9 205.1,47 
		205.4,46.7 205.9,46.2 206.2,46.1 206.7,46.2 207.1,46.5 207.4,46.2 207.9,46.8 208.3,46.3 208.7,46.3 209.1,46.1 209.6,46.1 
		209.9,46.5 210.3,46.5 210.8,46.8 211.1,46 211.6,47 211.9,46.9 212.3,47.5 212.8,47.4 213.1,46.8 213.6,47.3 214,47.7 214.4,69.2 
		214.8,47 215.2,46.9 215.6,46.8 216,47 216.4,47 216.8,46.6 217.2,46.8 217.6,46.8 218,47.1 218.5,46.4 218.8,46.4 219.3,46.6 
		219.7,46.3 220,47 220.5,46.2 220.9,46.6 221.3,46.4 221.7,47 222.1,46.9 222.5,47.6 222.9,47 223.3,46.7 223.7,46.6 224.2,47 
		224.5,46.2 224.9,46.1 225.4,46.1 225.7,46.7 226.2,46.7 226.6,46.6 226.9,46.5 227.4,46.5 227.7,47 228.2,46.6 228.6,47.1 
		229,46.9 229.4,47.7 229.8,46.8 230.2,46.6 230.6,47.1 231.1,47.1 231.4,46.4 231.8,46.7 232.3,47.4 232.6,46.8 233.1,47.2 
		233.4,47 233.9,47.9 234.3,47.5 234.6,53.7 235.1,68.9 235.5,67.3 235.9,47 236.3,46.9 236.7,46.5 237.1,46.8 237.5,46.6 238,46.5 
		238.3,46.7 238.8,46.3 239.1,46.4 239.5,46.8 240,47.2 240.3,46.8 240.8,46.5 241.2,46.5 241.5,46.1 242,46.2 242.4,46.6 
		242.8,46.6 243.2,46.4 243.6,46.8 244,46.5 244.4,46.5 244.8,46.6 245.2,45.8 245.7,46.5 246,47 246.4,47 246.9,46.4 247.2,47 
		247.7,46.5 248.1,46.6 248.5,46.4 248.9,46.6 249.3,46.7 249.7,46.7 250.1,47.5 250.5,46.8 250.9,46.9 251.3,46.7 251.7,47.3 
		252.1,47.4 252.6,46.5 252.9,46.5 253.3,47.4 253.8,47 254.1,46.9 254.6,46.3 254.9,46.6 255.4,46.6 255.8,46.5 256.1,47.1 
		256.6,46.7 257,46.9 257.4,47.1 257.8,46.9 258.2,47 258.6,47.1 259,47 259.5,46.7 259.8,46.8 260.3,46.9 260.6,47 261,46.9 
		261.5,47.1 261.8,46.9 262.3,47.3 262.7,47 263,47.3 263.5,47.2 263.9,47.2 264.3,47.3 264.7,47.5 265.1,47.1 265.5,47.1 
		265.9,47.1 266.3,47.9 266.7,48 267.2,48.1 267.5,48.3 267.9,48 268.4,48.2 268.7,48.1 269.2,70.1 269.6,48 270,47.5 270.4,47.9 
		270.8,48 271.2,48 271.6,47.8 272,48.1 272.4,49.1 272.8,47.1 273.2,47.9 273.6,47.6 274.1,48.1 274.4,48 274.9,48.1 275.3,48.1 
		275.6,47.4 276.1,47.7 276.5,47.8 276.9,48.2 277.3,48.1 277.6,47.4 278.1,48.6 278.5,48.1 278.9,48.1 279.3,48.3 279.8,48.3 
		280.1,48 280.5,48.7 281,49 281.3,48.5 281.8,48.3 282.1,48.6 282.5,49.7 283,49.8 283.3,49.6 283.8,48.7 284.2,49.4 284.6,49.2 
		285,48.6 285.4,49.2 285.8,49.3 286.2,49.5 286.7,50.4 287,61 287.4,49.9 287.8,49.2 288.2,49.7 288.7,49.7 289,49.7 289.5,49.8 
		289.9,49.6 290.2,49 290.7,49.2 291.1,49.4 291.5,49.2 291.9,49.2 292.3,49.3 292.7,48.7 293.1,49.2 293.5,49.7 293.9,49.8 
		294.4,49.3 294.7,49.2 295.1,49.3 295.6,49.7 295.9,50 296.4,49.9 296.8,50.1 297.1,50.4 297.6,50.4 298,49.7 298.4,49.3 
		298.8,50.4 299.2,49.3 299.6,49.9 300,49.4 300.4,50.1 300.8,50 301.3,49.4 301.6,50.9 302,50.8 302.5,50.2 302.8,50.2 303.3,49.7 
		303.7,50.3 304,50.3 304.5,50.6 304.8,50.5 305.3,49.9 305.7,50.6 306.1,50.4 306.5,49.6 306.9,49.9 307.3,50.1 307.7,50.3 
		308.2,49.8 308.5,50.4 308.9,49.2 309.3,49.6 309.7,49.4 310.2,49.3 310.5,50 311,49.8 311.4,49.7 311.7,49.6 312.2,49.2 
		312.6,49.8 313,50.2 313.4,49.2 313.8,49.3 314.2,49.9 314.6,62.8 315,69.8 315.4,68.4 315.9,66.3 316.2,49.2 316.6,49.2 
		317.1,49.2 317.4,49.1 317.9,49.7 318.3,49.6 318.6,49.5 319.1,48.9 319.5,49.7 319.9,49.5 320.3,48.9 320.7,49.2 321.1,49.5 
		321.5,49.2 321.9,49.5 322.3,49.4 322.8,49.2 323.1,49 323.5,49.2 324,49.2 324.3,49.2 324.8,49.4 325.2,49.5 325.6,48.6 326,49.4 
		326.3,49.4 326.8,49.6 327.2,49.2 327.6,49.2 328,49.1 328.4,48.7 328.8,49.2 329.2,49.2 329.7,49.2 330,49.6 330.5,49.2 
		330.8,48.9 331.2,49.2 331.7,49.5 332,49 332.5,50 332.9,49.2 333.2,50 333.7,49.3 334.1,49.2 334.5,49.6 334.9,49.7 335.4,50.1 
		335.7,52.7 336.1,49.7 336.5,49.6 336.9,49.6 337.4,49.2 337.7,49.5 338.1,49.2 338.6,48.8 338.9,49 339.4,48.9 339.8,48.9 
		340.2,49.6 340.6,49 341,49.1 341.4,49.4 341.8,49 342.2,49 342.6,49.1 343,48.9 343.4,49.3 343.8,49 344.3,48.6 344.6,49 
		345.1,49.3 345.5,49.3 345.8,49.2 346.3,49.2 346.7,48.8 347.1,49.1 347.5,48.9 347.8,48.9 348.3,49.2 348.7,49.6 349.1,49.6 
		349.5,49.2 350,49.1 350.3,48.9 350.7,49.2 351.2,49.4 351.5,49.6 352,49.9 352.4,49.4 352.7,49.1 353.2,49.7 353.5,48.8 354,48.8 
		354.4,49.1 354.7,49.4 355.2,49.1 355.6,49.7 356,49.1 356.4,49.5 356.9,64.8 357.2,49.5 357.6,49.5 358,49.3 358.4,49.2 358.9,49 
		359.2,49.4 359.6,49.7 360.1,49.9 360.4,49.5 360.9,49.2 361.3,49.3 361.7,49.5 362.1,49.4 362.5,49.2 362.9,50.1 363.3,49.2 
		363.7,49.8 364.1,49.3 364.5,48.9 364.9,49.7 365.3,49.6 365.8,49.5 366.1,49.6 366.6,49.4 367,49.2 367.3,49.4 367.8,50.1 
		368.2,49.8 368.6,49.4 369,49.9 369.4,50.4 369.8,50.5 370.2,50.2 370.6,50.1 371,67.9 371.5,49.5 371.8,50.1 372.2,49.4 
		372.7,49.8 373,50.5 373.5,50.2 373.9,51.1 374.2,50.8 374.7,51 375,50.6 375.5,50.5 375.9,50.9 376.3,51 376.7,51.3 377.1,51.1 
		377.5,51.3 377.9,50.9 378.4,51.1 378.7,51.3 379.1,51.3 379.5,51.7 379.9,51.4 380.4,52.1 380.7,64.8 381.2,53.5 381.6,53 
		381.9,53.6 382.4,53.6 382.8,55.5 383.2,67 383.6,53.2 384,52.7 384.4,51.9 384.8,52.6 385.2,52.4 385.6,52.4 386.1,52.4 
		386.4,52.5 386.8,69 387.3,50.9 387.6,51.2 388.1,51.2 388.5,51.1 388.8,51.5 389.3,51.3 389.7,51.3 390.1,51.3 390.5,51.2 
		390.9,51.2 391.3,51.5 391.7,52.1 392.1,51.6 392.5,52.1 393,51.7 393.3,51.5 393.7,51.2 394.2,50.7 394.5,51.5 395,50.8 
		395.4,51.4 395.8,51 396.2,51.3 396.5,51.4 397,51.3 397.4,52.7 397.8,51.4 398.2,51 398.6,50.8 399,51.1 399.4,51.3 399.9,51.1 
		400.2,50.8 400.7,51.3 401.1,51 401.4,51.1 401.9,51 402.2,51.1 402.7,51.3 403.1,51.1 403.4,51.4 403.9,51 404.3,50.9 404.7,51.2 
		405.1,51.1 405.5,51.1 405.9,50.9 406.3,51.5 406.7,51.7 407.1,50.7 407.6,51 407.9,50.6 408.3,51.2 408.8,51 409.1,50.9 
		409.6,51.4 410,51.2 410.3,51.4 410.8,51.5 411.2,51.5 411.6,51.6 412,52.4 412.4,51.9 412.8,52.1 413.2,52.2 413.6,52.9 414,52.6 
		414.5,53.2 414.8,52.4 415.2,53.3 415.7,52.9 416,53.1 416.5,52.5 416.9,53.1 417.3,52.5 417.7,52.6 418.1,52.5 418.5,52.6 
		418.9,52.6 419.3,52.8 419.7,52 420.1,52.7 420.5,52.4 420.9,52.1 421.4,52.2 421.7,52 422.2,52.7 422.6,52.2 422.9,51.9 
		423.4,52.2 423.7,52 424.2,52.3 424.6,51.9 424.9,52 425.4,52.1 425.8,52.6 426.2,52.7 426.6,52.9 427.1,53.5 427.4,53.2 
		427.8,52.8 428.3,52.7 428.6,52.6 429.1,53.2 429.4,53.1 429.8,52.9 430.3,52.6 430.6,52.7 431.1,53.2 431.5,53.6 431.9,53.2 
		432.3,53 432.7,53.2 433.1,53 433.5,53.4 433.9,53.6 434.3,54.2 434.7,53.8 435.1,54.1 435.5,53.9 436,54.3 436.3,54.3 436.8,53.9 
		437.2,54.5 437.5,55 438,54.3 438.4,54.5 438.8,54.3 439.2,54.4 439.6,54.5 440,54.6 440.4,54.9 440.8,54.7 441.2,54.6 441.7,54.9 
		442,54.9 442.4,54.8 442.9,55.2 443.2,55.5 443.7,55.1 444.1,56.1 444.4,55.7 444.9,55.6 445.3,55.3 445.7,54.9 446.1,54.9 
		446.5,55.5 446.9,54.8 447.3,55.4 447.7,54.7 448.1,55.7 448.6,55.5 448.9,55.6 449.3,55.1 449.8,55.4 450.1,55.5 450.6,55.5 
		450.9,55.7 451.4,55.8 451.8,55.9 452.1,55.4 452.6,55.6 453,67 453.4,55.8 453.8,55.9 454.2,55.6 454.6,55.7 455,55.9 455.5,56.3 
		455.8,55.9 456.2,56 	"/>
	<polyline class="st4" points="50.5,70.9 50.9,70.9 51.2,70.9 51.7,71.2 52.1,71.1 52.5,70.9 52.9,70.9 53.3,70.9 53.7,70.9 
		54.1,70.9 54.5,70.9 54.9,70.9 55.3,70.9 55.7,70.9 56.1,70.9 56.6,70.9 56.9,70.9 57.4,70.9 57.8,70.9 58.1,70.9 58.6,78.4 
		59,77.1 59.4,70.9 59.8,70.9 60.1,70.9 60.6,70.9 61,70.9 61.4,70.8 61.8,70.9 62.3,70.9 62.6,70.9 63,70.9 63.5,70.9 63.8,70.9 
		64.3,70.9 64.6,70.9 65,70.9 65.5,70.9 65.8,70.9 66.3,70.8 66.7,70.9 67.1,70.9 67.5,70.9 67.9,70.9 68.3,70.9 68.7,70.9 
		69.2,70.9 69.5,70.9 69.9,70.9 70.3,70.9 70.7,70.9 71.2,70.9 71.5,70.9 72,70.9 72.4,70.9 72.7,70.9 73.2,70.9 73.6,70.9 74,70.9 
		74.4,70.9 74.8,70.9 75.2,70.9 75.6,70.9 76,70.9 76.4,70.9 76.9,70.9 77.2,70.9 77.6,70.9 78.1,70.9 78.4,70.9 78.9,70.9 
		79.3,70.9 79.6,70.9 80.1,70.9 80.5,70.9 80.9,70.9 81.3,70.9 81.7,70.9 82.1,70.9 82.5,70.9 82.9,70.9 83.3,70.9 83.8,70.8 
		84.1,70.9 84.5,70.9 85,70.9 85.3,70.9 85.8,70.9 86.1,70.9 86.6,70.9 87,70.9 87.3,70.9 87.8,70.9 88.2,70.9 88.6,70.9 89,70.9 
		89.4,70.9 89.8,70.9 90.2,70.9 90.7,70.8 91,70.9 91.5,70.9 91.8,70.9 92.2,70.9 92.7,70.9 93,70.9 93.5,70.9 93.9,70.9 94.2,70.9 
		94.7,70.9 95.1,70.9 95.5,70.9 95.9,70.9 96.3,71 96.7,70.9 97.1,70.9 97.5,70.9 97.9,70.9 98.4,70.9 98.7,70.9 99.1,70.9 
		99.6,71.2 99.9,70.9 100.4,70.9 100.8,70.9 101.1,70.9 101.6,70.9 102,71 102.4,73.8 102.8,74.8 103.2,70.9 103.6,70.9 104,70.9 
		104.4,70.9 104.8,70.9 105.3,70.9 105.6,70.9 106,70.9 106.5,70.9 106.8,70.9 107.3,70.9 107.7,70.9 108.1,70.9 108.5,70.9 
		108.8,70.9 109.3,70.9 109.7,70.9 110.1,70.9 110.5,70.9 110.9,70.9 111.3,70.9 111.7,70.9 112.2,70.9 112.5,70.9 113,70.9 
		113.3,72.9 113.7,75.6 114.2,71.1 114.5,72.1 115,74 115.4,78.5 115.7,75.5 116.2,73 116.6,71.7 117,71 117.4,71.4 117.9,71.9 
		118.2,72.5 118.6,73 119,73.8 119.4,74.5 119.9,75.3 120.2,76.4 120.6,77.6 121.1,79.1 121.4,81.4 121.9,84.7 122.3,96.3 122.7,87 
		123.1,82.2 123.5,79.3 123.9,77.7 124.3,76.4 124.7,75.3 125.1,74.4 125.5,73.5 125.9,72.8 126.3,72.1 126.8,71.6 127.1,71.1 
		127.6,71.3 128,71.5 128.3,71.8 128.8,72 129.2,72.3 129.6,72.7 130,73 130.3,73.4 130.8,73.7 131.2,74.2 131.6,74.6 132,75 
		132.5,75.7 132.8,76.3 133.2,76.8 133.7,77.4 134,78.3 134.5,78.8 134.9,79.8 135.2,80.9 135.7,81.9 136,83.2 136.5,84.5 
		136.9,86.6 137.3,89 137.7,92 138.1,95.9 138.5,103.6 138.9,127.2 139.4,104.3 139.7,94.9 140.1,89.7 140.5,85 140.9,81.9 
		141.4,78.8 141.7,75.2 142.2,70.8 142.6,70.9 142.9,70.9 143.4,70.9 143.8,70.9 144.2,70.9 144.6,70.9 145,70.9 145.4,70.9 
		145.8,70.9 146.2,70.9 146.6,70.9 147.1,70.9 147.4,70.9 147.8,70.9 148.3,70.9 148.6,70.9 149.1,70.9 149.5,70.9 149.8,70.9 
		150.3,70.9 150.7,70.9 151.1,70.9 151.5,70.9 151.8,70.9 152.3,70.9 152.7,70.9 153.1,70.9 153.5,70.9 154,70.9 154.3,70.8 
		154.7,70.9 155.2,70.9 155.5,70.9 156,70.8 156.4,70.8 156.7,70.9 157.2,70.9 157.5,70.9 158,70.9 158.4,70.9 158.8,70.9 
		159.2,70.9 159.6,70.9 160,70.9 160.4,70.9 160.9,70.9 161.2,70.9 161.6,70.9 162,70.9 162.4,70.9 162.9,73 163.2,70.9 163.7,70.9 
		164.1,70.9 164.4,70.9 164.9,71 165.3,70.9 165.7,70.9 166.1,70.9 166.5,70.9 166.9,70.9 167.3,70.9 167.7,70.9 168.1,70.9 
		168.6,70.9 168.9,70.9 169.3,70.9 169.8,70.9 170.1,70.9 170.6,70.9 171,70.9 171.3,70.9 171.8,70.9 172.2,70.9 172.6,70.9 
		173,70.9 173.4,70.9 173.8,70.8 174.2,70.9 174.6,70.9 175,70.9 175.5,70.9 175.8,70.8 176.2,70.9 176.7,70.9 177,70.9 177.5,70.9 
		177.9,70.9 178.3,70.9 178.7,70.9 179,70.9 179.5,70.8 179.9,70.9 180.3,70.9 180.7,70.9 181.1,70.8 181.5,70.9 181.9,70.8 
		182.4,70.8 182.7,70.9 183.2,70.9 183.6,70.9 183.9,70.9 184.4,70.9 184.7,70.9 185.2,70.9 185.6,70.9 185.9,70.9 186.4,70.9 
		186.8,70.9 187.2,70.9 187.6,70.9 188.1,70.9 188.4,70.9 188.8,70.9 189.2,70.9 189.6,71 190.1,70.9 190.4,70.9 190.8,70.9 
		191.3,70.9 191.6,70.9 192.1,70.9 192.5,70.8 192.9,70.9 193.3,70.9 193.7,70.9 194.1,70.9 194.5,70.9 194.9,70.8 195.3,70.9 
		195.7,70.9 196.1,70.9 196.5,70.9 197,70.9 197.3,70.9 197.8,70.9 198.2,70.9 198.5,70.9 199,70.9 199.4,70.9 199.8,70.9 
		200.2,70.9 200.6,70.9 201,70.9 201.4,70.9 201.8,70.9 202.2,70.9 202.6,70.9 203,70.9 203.4,70.9 203.9,70.8 204.2,70.9 
		204.7,70.9 205.1,70.9 205.4,70.9 205.9,70.9 206.2,70.8 206.7,70.9 207.1,70.9 207.4,70.8 207.9,70.9 208.3,70.9 208.7,70.9 
		209.1,70.9 209.6,70.9 209.9,70.9 210.3,70.9 210.8,70.9 211.1,70.8 211.6,70.9 211.9,70.9 212.3,70.9 212.8,70.9 213.1,70.9 
		213.6,70.9 214,70.9 214.4,72 214.8,70.9 215.2,70.9 215.6,70.9 216,70.9 216.4,70.8 216.8,70.9 217.2,70.9 217.6,70.9 218,70.9 
		218.5,70.9 218.8,70.9 219.3,70.9 219.7,70.9 220,70.9 220.5,70.9 220.9,70.9 221.3,70.9 221.7,70.9 222.1,70.9 222.5,70.9 
		222.9,70.9 223.3,70.9 223.7,70.9 224.2,70.9 224.5,70.9 224.9,70.8 225.4,70.9 225.7,70.9 226.2,70.9 226.6,70.9 226.9,70.8 
		227.4,70.9 227.7,70.9 228.2,70.9 228.6,70.9 229,70.9 229.4,70.9 229.8,70.9 230.2,70.9 230.6,70.9 231.1,70.9 231.4,70.9 
		231.8,70.9 232.3,70.9 232.6,70.9 233.1,70.9 233.4,70.9 233.9,70.9 234.3,70.9 234.6,70.9 235.1,79.3 235.5,87.5 235.9,70.9 
		236.3,70.9 236.7,70.9 237.1,70.9 237.5,70.9 238,70.9 238.3,70.9 238.8,70.9 239.1,70.9 239.5,70.9 240,70.9 240.3,70.9 
		240.8,70.9 241.2,70.9 241.5,70.9 242,70.9 242.4,70.9 242.8,70.9 243.2,70.9 243.6,70.9 244,70.8 244.4,70.9 244.8,70.9 
		245.2,70.9 245.7,70.9 246,70.9 246.4,70.9 246.9,70.9 247.2,70.9 247.7,70.9 248.1,70.9 248.5,70.9 248.9,70.9 249.3,70.8 
		249.7,70.9 250.1,70.9 250.5,70.9 250.9,70.9 251.3,70.9 251.7,70.9 252.1,70.9 252.6,70.8 252.9,70.9 253.3,70.9 253.8,70.8 
		254.1,70.9 254.6,70.9 254.9,70.9 255.4,70.9 255.8,70.9 256.1,70.9 256.6,70.9 257,70.9 257.4,70.9 257.8,70.9 258.2,70.9 
		258.6,70.9 259,70.9 259.5,70.9 259.8,70.9 260.3,70.9 260.6,70.9 261,70.9 261.5,70.9 261.8,70.9 262.3,70.9 262.7,70.9 263,70.9 
		263.5,70.9 263.9,70.9 264.3,70.9 264.7,70.9 265.1,70.9 265.5,70.9 265.9,70.9 266.3,70.8 266.7,70.9 267.2,70.9 267.5,70.9 
		267.9,70.9 268.4,70.8 268.7,70.9 269.2,74.8 269.6,70.9 270,70.9 270.4,70.9 270.8,70.9 271.2,70.9 271.6,70.9 272,70.9 
		272.4,70.9 272.8,70.9 273.2,70.9 273.6,70.9 274.1,70.9 274.4,70.9 274.9,70.9 275.3,70.9 275.6,70.9 276.1,70.9 276.5,70.9 
		276.9,70.9 277.3,70.9 277.6,70.9 278.1,70.9 278.5,70.9 278.9,70.9 279.3,70.9 279.8,70.9 280.1,70.9 280.5,70.9 281,70.9 
		281.3,70.9 281.8,70.9 282.1,70.9 282.5,70.9 283,70.9 283.3,70.9 283.8,70.9 284.2,70.9 284.6,70.9 285,70.9 285.4,70.9 
		285.8,70.9 286.2,70.9 286.7,70.9 287,73.8 287.4,70.9 287.8,70.9 288.2,70.9 288.7,70.9 289,70.9 289.5,70.9 289.9,70.9 
		290.2,70.9 290.7,70.9 291.1,70.9 291.5,70.9 291.9,70.9 292.3,70.9 292.7,70.9 293.1,70.9 293.5,70.9 293.9,70.9 294.4,70.9 
		294.7,70.9 295.1,70.9 295.6,70.9 295.9,70.9 296.4,70.9 296.8,70.9 297.1,70.9 297.6,70.9 298,70.9 298.4,70.9 298.8,70.9 
		299.2,70.9 299.6,70.9 300,70.8 300.4,70.9 300.8,70.9 301.3,70.9 301.6,70.9 302,70.9 302.5,70.9 302.8,70.9 303.3,70.9 
		303.7,70.9 304,70.9 304.5,70.9 304.8,70.9 305.3,70.9 305.7,70.9 306.1,70.9 306.5,70.9 306.9,70.9 307.3,70.9 307.7,70.9 
		308.2,70.9 308.5,70.9 308.9,70.9 309.3,70.9 309.7,70.9 310.2,70.9 310.5,70.9 311,70.9 311.4,70.9 311.7,70.9 312.2,70.9 
		312.6,70.9 313,70.9 313.4,70.9 313.8,70.9 314.2,70.9 314.6,70.9 315,71.2 315.4,72.5 315.9,78.5 316.2,70.9 316.6,70.9 
		317.1,70.9 317.4,70.9 317.9,70.9 318.3,70.9 318.6,70.9 319.1,70.9 319.5,70.9 319.9,70.9 320.3,70.9 320.7,70.9 321.1,70.9 
		321.5,70.9 321.9,70.9 322.3,70.9 322.8,70.9 323.1,70.9 323.5,70.9 324,70.9 324.3,70.9 324.8,70.9 325.2,70.9 325.6,70.9 
		326,70.9 326.3,70.9 326.8,70.9 327.2,70.9 327.6,70.9 328,70.9 328.4,70.9 328.8,70.9 329.2,70.9 329.7,70.9 330,70.9 330.5,70.9 
		330.8,70.9 331.2,70.9 331.7,70.9 332,70.9 332.5,70.9 332.9,70.8 333.2,70.9 333.7,70.9 334.1,70.9 334.5,70.9 334.9,70.9 
		335.4,70.9 335.7,74.9 336.1,70.9 336.5,70.9 336.9,70.9 337.4,70.9 337.7,70.9 338.1,70.9 338.6,70.9 338.9,70.8 339.4,70.9 
		339.8,70.9 340.2,70.9 340.6,70.9 341,70.9 341.4,70.9 341.8,70.9 342.2,70.9 342.6,70.9 343,70.9 343.4,70.9 343.8,70.9 
		344.3,70.9 344.6,70.9 345.1,70.9 345.5,70.9 345.8,70.9 346.3,70.9 346.7,70.9 347.1,70.9 347.5,70.9 347.8,70.9 348.3,70.9 
		348.7,70.9 349.1,70.9 349.5,70.9 350,70.9 350.3,70.9 350.7,70.9 351.2,70.9 351.5,70.9 352,70.9 352.4,70.9 352.7,70.9 
		353.2,70.9 353.5,70.9 354,70.9 354.4,70.9 354.7,70.9 355.2,70.9 355.6,70.9 356,70.9 356.4,70.9 356.9,78.2 357.2,70.8 
		357.6,70.9 358,70.9 358.4,70.9 358.9,70.9 359.2,70.9 359.6,70.9 360.1,70.9 360.4,70.9 360.9,70.8 361.3,70.9 361.7,70.9 
		362.1,70.9 362.5,70.9 362.9,70.9 363.3,70.9 363.7,70.9 364.1,70.9 364.5,70.9 364.9,70.9 365.3,70.9 365.8,70.9 366.1,70.9 
		366.6,70.9 367,70.9 367.3,70.9 367.8,70.9 368.2,70.9 368.6,70.9 369,70.9 369.4,70.9 369.8,70.9 370.2,70.9 370.6,70.9 371,72.3 
		371.5,70.9 371.8,70.9 372.2,70.9 372.7,70.9 373,70.9 373.5,70.8 373.9,70.9 374.2,70.9 374.7,70.9 375,70.9 375.5,70.9 
		375.9,70.9 376.3,70.9 376.7,70.9 377.1,70.9 377.5,70.8 377.9,70.9 378.4,70.9 378.7,70.9 379.1,70.9 379.5,70.9 379.9,70.9 
		380.4,70.9 380.7,71 381.2,70.9 381.6,70.9 381.9,70.9 382.4,70.9 382.8,70.9 383.2,73.5 383.6,70.9 384,70.9 384.4,70.9 
		384.8,70.9 385.2,70.9 385.6,70.9 386.1,70.9 386.4,70.9 386.8,77.7 387.3,70.8 387.6,70.9 388.1,70.9 388.5,70.9 388.8,70.9 
		389.3,70.9 389.7,70.9 390.1,70.9 390.5,70.9 390.9,70.9 391.3,70.9 391.7,70.9 392.1,70.8 392.5,70.9 393,70.9 393.3,70.9 
		393.7,70.9 394.2,70.9 394.5,70.9 395,70.9 395.4,70.9 395.8,70.9 396.2,70.9 396.5,70.9 397,70.9 397.4,70.9 397.8,70.9 
		398.2,70.9 398.6,70.9 399,70.9 399.4,70.9 399.9,70.9 400.2,70.8 400.7,70.9 401.1,70.9 401.4,70.9 401.9,70.9 402.2,70.9 
		402.7,70.9 403.1,70.9 403.4,70.9 403.9,70.9 404.3,70.8 404.7,70.9 405.1,70.9 405.5,70.9 405.9,70.9 406.3,70.9 406.7,70.9 
		407.1,70.9 407.6,70.9 407.9,70.8 408.3,70.9 408.8,70.9 409.1,70.9 409.6,70.9 410,70.9 410.3,70.9 410.8,70.9 411.2,70.9 
		411.6,70.9 412,70.9 412.4,70.9 412.8,70.8 413.2,70.9 413.6,70.9 414,70.9 414.5,70.9 414.8,70.9 415.2,70.9 415.7,70.9 416,70.9 
		416.5,70.9 416.9,70.9 417.3,70.9 417.7,70.9 418.1,70.9 418.5,70.9 418.9,70.9 419.3,70.9 419.7,70.9 420.1,70.9 420.5,70.9 
		420.9,70.9 421.4,70.9 421.7,70.9 422.2,70.9 422.6,70.9 422.9,70.9 423.4,70.9 423.7,70.9 424.2,70.9 424.6,70.9 424.9,70.9 
		425.4,71 425.8,70.9 426.2,70.9 426.6,70.9 427.1,70.9 427.4,70.9 427.8,70.9 428.3,70.8 428.6,70.9 429.1,70.9 429.4,70.9 
		429.8,70.9 430.3,70.9 430.6,70.9 431.1,70.9 431.5,70.9 431.9,70.9 432.3,70.9 432.7,70.9 433.1,70.9 433.5,70.9 433.9,70.9 
		434.3,70.9 434.7,70.9 435.1,70.9 435.5,70.9 436,70.9 436.3,70.9 436.8,70.9 437.2,70.9 437.5,70.9 438,70.9 438.4,70.9 
		438.8,70.9 439.2,70.9 439.6,70.9 440,70.9 440.4,70.9 440.8,70.9 441.2,70.9 441.7,70.9 442,70.9 442.4,70.9 442.9,70.9 
		443.2,70.9 443.7,70.9 444.1,70.9 444.4,70.9 444.9,70.9 445.3,70.9 445.7,70.8 446.1,70.9 446.5,70.9 446.9,70.9 447.3,70.9 
		447.7,70.9 448.1,70.9 448.6,70.9 448.9,70.9 449.3,70.9 449.8,70.9 450.1,70.9 450.6,70.9 450.9,70.9 451.4,70.9 451.8,70.9 
		452.1,70.9 452.6,70.9 453,72.4 453.4,70.9 453.8,70.9 454.2,70.9 454.6,70.9 455,70.9 455.5,70.9 455.8,70.9 456.2,71 	"/>
	<g>
		<path class="st2" d="M10,77.3c-0.4,0.1-0.7,0.2-1.2,0.4v0.1c0.4,0.1,0.8,0.2,1.1,0.3l3.1,1.1v1l-4.9-1.9c-0.1,0-0.2-0.1-0.3-0.1
			c-0.1,0-0.2,0-0.3,0.1c-0.9,0.3-1.7,0.7-1.7,1.4c0,0.1,0,0.1,0,0.2l-0.7-0.1c0-0.1,0-0.2,0-0.4c0-1,1-1.5,2.5-2.1l5.4-2v1L10,77.3
			z"/>
	</g>
	<g>
		<path class="st2" d="M13.6,72.2L13.6,72.2l0.5,1l-0.6,0.1l-0.7-1.3v-0.7h5.7v0.7H13.6z"/>
		<path class="st2" d="M19.7,69.6c-0.5-0.2-1.5-0.4-2.1-0.5l-0.1-0.9c0.7,0.2,1.7,0.6,2.1,0.8L19.7,69.6z"/>
		<path class="st2" d="M18.6,67.5h-0.5l-0.6-0.6c-1.4-1.5-2.1-2.1-3-2.1c-0.6,0-1.1,0.3-1.1,1.1c0,0.5,0.3,1,0.5,1.2l-0.5,0.2
			c-0.3-0.4-0.6-1-0.6-1.6c0-1.2,0.8-1.8,1.7-1.8c1.1,0,1.9,0.8,3.1,2l0.4,0.5h0v-2.6h0.6V67.5z"/>
	</g>
	<g>
		<path class="st2" d="M2.7,6.6L2.1,8.9H0L2.7,0h2.6l2.8,8.9H6L5.3,6.6H2.7z M5,5.1L4.4,3.2C4.3,2.7,4.1,2,4,1.5h0
			C3.8,2,3.7,2.7,3.5,3.2L3,5.1H5z"/>
	</g>
	<polyline class="st0" points="50.5,324.1 50.5,190.1 456.3,190.1 456.3,324.1 50.5,324.1 	"/>
	<path class="st1" d="M50.5,324.1h405.8 M50.5,190.1h405.8 M50.5,324.1v-134 M456.3,324.1v-134 M50.5,324.1h405.8 M50.5,324.1v-134
		 M50.5,324.1V320 M50.5,190.1v4"/>
	<g>
		<g>
			<path class="st2" d="M45.2,336.3c0.3,0.2,0.9,0.5,1.6,0.5c1.2,0,1.6-0.8,1.6-1.4c0-1-0.9-1.4-1.9-1.4H46v-0.7h0.5
				c0.7,0,1.6-0.4,1.6-1.2c0-0.6-0.4-1.1-1.3-1.1c-0.6,0-1.1,0.3-1.4,0.5l-0.3-0.7c0.4-0.3,1.1-0.6,1.9-0.6c1.4,0,2,0.8,2,1.7
				c0,0.7-0.4,1.4-1.3,1.7v0c0.9,0.2,1.6,0.8,1.6,1.8c0,1.1-0.9,2.1-2.6,2.1c-0.8,0-1.5-0.3-1.9-0.5L45.2,336.3z"/>
		</g>
		<g>
			<path class="st2" d="M54.9,331.1h-2.7l-0.3,1.8c0.2,0,0.3,0,0.6,0c0.6,0,1.1,0.1,1.5,0.4c0.6,0.3,1,0.9,1,1.8
				c0,1.4-1.1,2.4-2.7,2.4c-0.8,0-1.4-0.2-1.8-0.4l0.2-0.7c0.3,0.2,0.9,0.4,1.5,0.4c0.9,0,1.7-0.6,1.7-1.6c0-0.9-0.6-1.6-2.1-1.6
				c-0.4,0-0.7,0-1,0.1l0.5-3.4h3.4V331.1z"/>
		</g>
	</g>
	<path class="st1" d="M91,324.1V320 M91,190.1v4"/>
	<g>
		<path class="st2" d="M85.7,336.3c0.3,0.2,0.9,0.5,1.6,0.5c1.2,0,1.6-0.8,1.6-1.4c0-1-0.9-1.4-1.9-1.4h-0.5v-0.7H87
			c0.7,0,1.6-0.4,1.6-1.2c0-0.6-0.4-1.1-1.3-1.1c-0.6,0-1.1,0.3-1.4,0.5l-0.3-0.7c0.4-0.3,1.1-0.6,1.9-0.6c1.4,0,2,0.8,2,1.7
			c0,0.7-0.4,1.4-1.3,1.7v0c0.9,0.2,1.6,0.8,1.6,1.8c0,1.1-0.9,2.1-2.6,2.1c-0.8,0-1.5-0.3-1.9-0.5L85.7,336.3z"/>
		<path class="st2" d="M95.2,330.9c-0.2,0-0.5,0-0.7,0c-1.5,0.3-2.3,1.4-2.5,2.5h0c0.3-0.5,0.9-0.8,1.7-0.8c1.3,0,2.2,0.9,2.2,2.3
			c0,1.3-0.9,2.5-2.4,2.5c-1.5,0-2.5-1.2-2.5-3.1c0-1.4,0.5-2.5,1.2-3.2c0.6-0.6,1.4-0.9,2.3-1.1c0.3,0,0.5-0.1,0.7-0.1V330.9z
			 M94.9,335.1c0-1-0.6-1.6-1.5-1.6c-0.6,0-1.1,0.4-1.4,0.9c-0.1,0.1-0.1,0.3-0.1,0.4c0,1.2,0.6,2.1,1.6,2.1
			C94.4,336.8,94.9,336.1,94.9,335.1z"/>
	</g>
	<path class="st1" d="M131.6,324.1V320 M131.6,190.1v4"/>
	<g>
		<path class="st2" d="M126.3,336.3c0.3,0.2,0.9,0.5,1.6,0.5c1.2,0,1.6-0.8,1.6-1.4c0-1-0.9-1.4-1.9-1.4h-0.5v-0.7h0.5
			c0.7,0,1.6-0.4,1.6-1.2c0-0.6-0.4-1.1-1.3-1.1c-0.6,0-1.1,0.3-1.4,0.5l-0.3-0.7c0.4-0.3,1.1-0.6,1.9-0.6c1.4,0,2,0.8,2,1.7
			c0,0.7-0.4,1.4-1.3,1.7v0c0.9,0.2,1.6,0.8,1.6,1.8c0,1.1-0.9,2.1-2.6,2.1c-0.8,0-1.5-0.3-1.9-0.5L126.3,336.3z"/>
		<path class="st2" d="M136.4,330.2v0.6l-3.1,6.5h-1l3.1-6.3v0h-3.5v-0.8H136.4z"/>
	</g>
	<path class="st1" d="M172.2,324.1V320 M172.2,190.1v4"/>
	<g>
		<path class="st2" d="M166.8,336.3c0.3,0.2,0.9,0.5,1.6,0.5c1.2,0,1.6-0.8,1.6-1.4c0-1-0.9-1.4-1.9-1.4h-0.5v-0.7h0.5
			c0.7,0,1.6-0.4,1.6-1.2c0-0.6-0.4-1.1-1.3-1.1c-0.6,0-1.1,0.3-1.4,0.5l-0.3-0.7c0.4-0.3,1.1-0.6,1.9-0.6c1.4,0,2,0.8,2,1.7
			c0,0.7-0.4,1.4-1.3,1.7v0c0.9,0.2,1.6,0.8,1.6,1.8c0,1.1-0.9,2.1-2.6,2.1c-0.8,0-1.5-0.3-1.9-0.5L166.8,336.3z"/>
		<path class="st2" d="M172.2,335.6c0-0.9,0.5-1.5,1.4-1.9l0,0c-0.8-0.4-1.1-1-1.1-1.6c0-1.1,1-1.9,2.2-1.9c1.4,0,2.1,0.9,2.1,1.8
			c0,0.6-0.3,1.3-1.2,1.7v0c0.9,0.4,1.4,1,1.4,1.9c0,1.2-1.1,2.1-2.4,2.1C173.1,337.5,172.2,336.6,172.2,335.6z M176,335.5
			c0-0.9-0.6-1.3-1.6-1.6c-0.8,0.2-1.3,0.8-1.3,1.5c0,0.7,0.5,1.4,1.4,1.4C175.5,336.8,176,336.3,176,335.5z M173.4,332
			c0,0.7,0.5,1.1,1.4,1.3c0.6-0.2,1.1-0.6,1.1-1.3c0-0.6-0.3-1.2-1.2-1.2C173.8,330.8,173.4,331.4,173.4,332z"/>
	</g>
	<path class="st1" d="M212.8,324.1V320 M212.8,190.1v4"/>
	<g>
		<path class="st2" d="M207.4,336.3c0.3,0.2,0.9,0.5,1.6,0.5c1.2,0,1.6-0.8,1.6-1.4c0-1-0.9-1.4-1.9-1.4h-0.5v-0.7h0.5
			c0.7,0,1.6-0.4,1.6-1.2c0-0.6-0.4-1.1-1.3-1.1c-0.6,0-1.1,0.3-1.4,0.5l-0.3-0.7c0.4-0.3,1.1-0.6,1.9-0.6c1.4,0,2,0.8,2,1.7
			c0,0.7-0.4,1.4-1.3,1.7v0c0.9,0.2,1.6,0.8,1.6,1.8c0,1.1-0.9,2.1-2.6,2.1c-0.8,0-1.5-0.3-1.9-0.5L207.4,336.3z"/>
		<path class="st2" d="M213.4,336.7c0.2,0,0.5,0,0.8,0c0.6-0.1,1.1-0.3,1.5-0.7c0.5-0.4,0.8-1.1,0.9-1.9h0c-0.4,0.5-1,0.8-1.7,0.8
			c-1.3,0-2.1-1-2.1-2.2c0-1.4,1-2.5,2.4-2.5c1.5,0,2.4,1.2,2.4,3c0,1.6-0.5,2.7-1.2,3.4c-0.6,0.5-1.3,0.9-2.1,1
			c-0.4,0.1-0.7,0.1-0.9,0.1V336.7z M213.8,332.6c0,0.9,0.5,1.5,1.4,1.5c0.6,0,1.2-0.3,1.4-0.7c0.1-0.1,0.1-0.2,0.1-0.4
			c0-1.2-0.5-2.2-1.5-2.2C214.4,330.9,213.8,331.6,213.8,332.6z"/>
	</g>
	<path class="st1" d="M253.4,324.1V320 M253.4,190.1v4"/>
	<g>
		<path class="st2" d="M250.8,337.4v-2h-3.3v-0.6l3.2-4.6h1v4.5h1v0.8h-1v2H250.8z M250.8,334.7v-2.4c0-0.4,0-0.7,0-1.1h0
			c-0.2,0.4-0.4,0.7-0.6,1.1l-1.8,2.4v0H250.8z"/>
		<path class="st2" d="M258.2,333.8c0,2.4-0.9,3.8-2.5,3.8c-1.4,0-2.3-1.3-2.4-3.7c0-2.4,1-3.7,2.5-3.7
			C257.4,330.1,258.2,331.5,258.2,333.8z M254.3,333.9c0,1.9,0.6,2.9,1.5,2.9c1,0,1.5-1.2,1.5-3c0-1.8-0.5-2.9-1.5-2.9
			C255,330.9,254.3,331.9,254.3,333.9z"/>
	</g>
	<path class="st1" d="M293.9,324.1V320 M293.9,190.1v4"/>
	<g>
		<path class="st2" d="M291.3,337.4v-2H288v-0.6l3.2-4.6h1v4.5h1v0.8h-1v2H291.3z M291.3,334.7v-2.4c0-0.4,0-0.7,0-1.1h0
			c-0.2,0.4-0.4,0.7-0.6,1.1l-1.8,2.4v0H291.3z"/>
		<path class="st2" d="M296.1,331.2L296.1,331.2l-1.3,0.7l-0.2-0.7l1.6-0.8h0.8v7.2h-0.9V331.2z"/>
	</g>
	<path class="st1" d="M334.5,324.1V320 M334.5,190.1v4"/>
	<g>
		<path class="st2" d="M331.9,337.4v-2h-3.3v-0.6l3.2-4.6h1v4.5h1v0.8h-1v2H331.9z M331.9,334.7v-2.4c0-0.4,0-0.7,0-1.1h0
			c-0.2,0.4-0.4,0.7-0.6,1.1l-1.8,2.4v0H331.9z"/>
		<path class="st2" d="M334.6,337.4v-0.6l0.8-0.7c1.8-1.7,2.7-2.7,2.7-3.7c0-0.7-0.4-1.4-1.4-1.4c-0.7,0-1.2,0.3-1.5,0.6l-0.3-0.7
			c0.5-0.4,1.2-0.7,2-0.7c1.5,0,2.2,1.1,2.2,2.1c0,1.3-1,2.4-2.5,3.8l-0.6,0.5v0h3.2v0.8H334.6z"/>
	</g>
	<path class="st1" d="M375,324.1V320 M375,190.1v4"/>
	<g>
		<path class="st2" d="M372.5,337.4v-2h-3.3v-0.6l3.2-4.6h1v4.5h1v0.8h-1v2H372.5z M372.5,334.7v-2.4c0-0.4,0-0.7,0-1.1h0
			c-0.2,0.4-0.4,0.7-0.6,1.1l-1.8,2.4v0H372.5z"/>
		<path class="st2" d="M375.4,336.3c0.3,0.2,0.9,0.5,1.6,0.5c1.2,0,1.6-0.8,1.6-1.4c0-1-0.9-1.4-1.9-1.4h-0.5v-0.7h0.5
			c0.7,0,1.6-0.4,1.6-1.2c0-0.6-0.4-1.1-1.3-1.1c-0.6,0-1.1,0.3-1.4,0.5l-0.3-0.7c0.4-0.3,1.1-0.6,1.9-0.6c1.4,0,2,0.8,2,1.7
			c0,0.7-0.4,1.4-1.3,1.7v0c0.9,0.2,1.6,0.8,1.6,1.8c0,1.1-0.9,2.1-2.6,2.1c-0.8,0-1.5-0.3-1.9-0.5L375.4,336.3z"/>
	</g>
	<path class="st1" d="M415.7,324.1V320 M415.7,190.1v4"/>
	<g>
		<path class="st2" d="M413.1,337.4v-2h-3.3v-0.6l3.2-4.6h1v4.5h1v0.8h-1v2H413.1z M413.1,334.7v-2.4c0-0.4,0-0.7,0-1.1h0
			c-0.2,0.4-0.4,0.7-0.6,1.1l-1.8,2.4v0H413.1z"/>
		<path class="st2" d="M418.7,337.4v-2h-3.3v-0.6l3.2-4.6h1v4.5h1v0.8h-1v2H418.7z M418.7,334.7v-2.4c0-0.4,0-0.7,0-1.1h0
			c-0.2,0.4-0.4,0.7-0.6,1.1l-1.8,2.4v0H418.7z"/>
	</g>
	<path class="st1" d="M456.3,324.1V320 M456.3,190.1v4"/>
	<g>
		<path class="st2" d="M453.7,337.4v-2h-3.3v-0.6l3.2-4.6h1v4.5h1v0.8h-1v2H453.7z M453.7,334.7v-2.4c0-0.4,0-0.7,0-1.1h0
			c-0.2,0.4-0.4,0.7-0.6,1.1l-1.8,2.4v0H453.7z"/>
		<path class="st2" d="M460.6,331.1h-2.7l-0.3,1.8c0.2,0,0.3,0,0.6,0c0.6,0,1.1,0.1,1.5,0.4c0.6,0.3,1,0.9,1,1.8
			c0,1.4-1.1,2.4-2.7,2.4c-0.8,0-1.4-0.2-1.8-0.4l0.2-0.7c0.3,0.2,0.9,0.4,1.5,0.4c0.9,0,1.7-0.6,1.7-1.6c0-0.9-0.6-1.6-2.1-1.6
			c-0.4,0-0.7,0-1,0.1l0.5-3.4h3.4V331.1z"/>
	</g>
	<path class="st1" d="M50.5,324.1h4 M456.3,324.1h-4.1"/>
	<g>
		<path class="st2" d="M32.9,324.5c0,2.4-0.9,3.8-2.5,3.8c-1.4,0-2.3-1.3-2.4-3.7c0-2.4,1-3.7,2.5-3.7
			C32,320.8,32.9,322.2,32.9,324.5z M29,324.6c0,1.9,0.6,2.9,1.5,2.9c1,0,1.5-1.2,1.5-3c0-1.8-0.5-2.9-1.5-2.9
			C29.6,321.6,29,322.6,29,324.6z"/>
		<path class="st2" d="M33.8,327.6c0-0.4,0.3-0.7,0.7-0.7c0.4,0,0.7,0.3,0.7,0.7c0,0.4-0.3,0.7-0.7,0.7
			C34.1,328.3,33.8,328,33.8,327.6z"/>
		<path class="st2" d="M40.7,321v0.6l-3.1,6.5h-1l3.1-6.3v0h-3.5V321H40.7z"/>
		<path class="st2" d="M46,321.8h-2.7l-0.3,1.8c0.2,0,0.3,0,0.6,0c0.6,0,1.1,0.1,1.5,0.4c0.6,0.3,1,0.9,1,1.8c0,1.4-1.1,2.4-2.7,2.4
			c-0.8,0-1.4-0.2-1.8-0.4l0.2-0.7c0.3,0.2,0.9,0.4,1.5,0.4c0.9,0,1.7-0.6,1.7-1.6c0-0.9-0.6-1.6-2.1-1.6c-0.4,0-0.7,0-1,0.1
			l0.5-3.4H46V321.8z"/>
	</g>
	<path class="st1" d="M50.5,297.3h4 M456.3,297.3h-4.1"/>
	<g>
		<path class="st2" d="M38.5,297.6c0,2.4-0.9,3.8-2.5,3.8c-1.4,0-2.3-1.3-2.4-3.7c0-2.4,1-3.7,2.5-3.7
			C37.7,294,38.5,295.4,38.5,297.6z M34.6,297.8c0,1.9,0.6,2.9,1.5,2.9c1,0,1.5-1.2,1.5-3c0-1.8-0.5-2.9-1.5-2.9
			C35.3,294.8,34.6,295.8,34.6,297.8z"/>
		<path class="st2" d="M39.5,300.7c0-0.4,0.3-0.7,0.7-0.7c0.4,0,0.7,0.3,0.7,0.7c0,0.4-0.3,0.7-0.7,0.7
			C39.8,301.4,39.5,301.1,39.5,300.7z"/>
		<path class="st2" d="M41.6,299.5c0-0.9,0.5-1.5,1.4-1.9l0,0c-0.8-0.4-1.1-1-1.1-1.6c0-1.1,1-1.9,2.2-1.9c1.4,0,2.1,0.9,2.1,1.8
			c0,0.6-0.3,1.3-1.2,1.7v0c0.9,0.4,1.4,1,1.4,1.9c0,1.2-1.1,2.1-2.4,2.1C42.5,301.4,41.6,300.5,41.6,299.5z M45.5,299.4
			c0-0.9-0.6-1.3-1.6-1.6c-0.8,0.2-1.3,0.8-1.3,1.5c0,0.7,0.5,1.4,1.4,1.4C44.9,300.7,45.5,300.2,45.5,299.4z M42.8,295.9
			c0,0.7,0.5,1.1,1.4,1.3c0.6-0.2,1.1-0.6,1.1-1.3c0-0.6-0.3-1.2-1.2-1.2C43.2,294.7,42.8,295.2,42.8,295.9z"/>
	</g>
	<path class="st1" d="M50.5,270.4h4 M456.3,270.4h-4.1"/>
	<g>
		<path class="st2" d="M32.9,270.8c0,2.4-0.9,3.8-2.5,3.8c-1.4,0-2.3-1.3-2.4-3.7c0-2.4,1-3.7,2.5-3.7
			C32,267.2,32.9,268.5,32.9,270.8z M29,270.9c0,1.9,0.6,2.9,1.5,2.9c1,0,1.5-1.2,1.5-3c0-1.8-0.5-2.9-1.5-2.9
			C29.6,267.9,29,269,29,270.9z"/>
		<path class="st2" d="M33.8,273.9c0-0.4,0.3-0.7,0.7-0.7c0.4,0,0.7,0.3,0.7,0.7c0,0.4-0.3,0.7-0.7,0.7
			C34.1,274.6,33.8,274.3,33.8,273.9z"/>
		<path class="st2" d="M36,272.7c0-0.9,0.5-1.5,1.4-1.9l0,0c-0.8-0.4-1.1-1-1.1-1.6c0-1.1,1-1.9,2.2-1.9c1.4,0,2.1,0.9,2.1,1.8
			c0,0.6-0.3,1.3-1.2,1.7v0c0.9,0.4,1.4,1,1.4,1.9c0,1.2-1.1,2.1-2.4,2.1C36.9,274.6,36,273.7,36,272.7z M39.8,272.6
			c0-0.9-0.6-1.3-1.6-1.6c-0.8,0.2-1.3,0.8-1.3,1.5c0,0.7,0.5,1.4,1.4,1.4C39.3,273.9,39.8,273.4,39.8,272.6z M37.2,269
			c0,0.7,0.5,1.1,1.4,1.3c0.6-0.2,1.1-0.6,1.1-1.3c0-0.6-0.3-1.2-1.2-1.2C37.6,267.9,37.2,268.4,37.2,269z"/>
		<path class="st2" d="M46,268.1h-2.7L43,270c0.2,0,0.3,0,0.6,0c0.6,0,1.1,0.1,1.5,0.4c0.6,0.3,1,0.9,1,1.8c0,1.4-1.1,2.4-2.7,2.4
			c-0.8,0-1.4-0.2-1.8-0.4l0.2-0.7c0.3,0.2,0.9,0.4,1.5,0.4c0.9,0,1.7-0.6,1.7-1.6c0-0.9-0.6-1.6-2.1-1.6c-0.4,0-0.7,0-1,0.1
			l0.5-3.4H46V268.1z"/>
	</g>
	<path class="st1" d="M50.5,243.7h4 M456.3,243.7h-4.1"/>
	<g>
		<path class="st2" d="M38.5,244.1c0,2.4-0.9,3.8-2.5,3.8c-1.4,0-2.3-1.3-2.4-3.7c0-2.4,1-3.7,2.5-3.7
			C37.7,240.4,38.5,241.8,38.5,244.1z M34.6,244.2c0,1.9,0.6,2.9,1.5,2.9c1,0,1.5-1.2,1.5-3c0-1.8-0.5-2.9-1.5-2.9
			C35.3,241.2,34.6,242.2,34.6,244.2z"/>
		<path class="st2" d="M39.5,247.2c0-0.4,0.3-0.7,0.7-0.7c0.4,0,0.7,0.3,0.7,0.7c0,0.4-0.3,0.7-0.7,0.7
			C39.8,247.8,39.5,247.5,39.5,247.2z"/>
		<path class="st2" d="M42.3,247c0.2,0,0.5,0,0.8,0c0.6-0.1,1.1-0.3,1.5-0.7c0.5-0.4,0.8-1.1,0.9-1.9h0c-0.4,0.5-1,0.8-1.7,0.8
			c-1.3,0-2.1-1-2.1-2.2c0-1.4,1-2.5,2.4-2.5c1.5,0,2.4,1.2,2.4,3c0,1.6-0.5,2.7-1.2,3.4c-0.6,0.5-1.3,0.9-2.1,1
			c-0.4,0.1-0.7,0.1-0.9,0.1V247z M42.6,242.9c0,0.9,0.5,1.5,1.4,1.5c0.6,0,1.2-0.3,1.4-0.7c0.1-0.1,0.1-0.2,0.1-0.4
			c0-1.2-0.5-2.2-1.5-2.2C43.2,241.2,42.6,241.9,42.6,242.9z"/>
	</g>
	<path class="st1" d="M50.5,216.9h4 M456.3,216.9h-4.1"/>
	<g>
		<path class="st2" d="M32.9,217.2c0,2.4-0.9,3.8-2.5,3.8c-1.4,0-2.3-1.3-2.4-3.7c0-2.4,1-3.7,2.5-3.7C32,213.6,32.9,215,32.9,217.2
			z M29,217.3c0,1.9,0.6,2.9,1.5,2.9c1,0,1.5-1.2,1.5-3c0-1.8-0.5-2.9-1.5-2.9C29.6,214.4,29,215.4,29,217.3z"/>
		<path class="st2" d="M33.8,220.3c0-0.4,0.3-0.7,0.7-0.7c0.4,0,0.7,0.3,0.7,0.7c0,0.4-0.3,0.7-0.7,0.7
			C34.1,221,33.8,220.7,33.8,220.3z"/>
		<path class="st2" d="M36.6,220.2c0.2,0,0.5,0,0.8,0c0.6-0.1,1.1-0.3,1.5-0.7c0.5-0.4,0.8-1.1,0.9-1.9h0c-0.4,0.5-1,0.8-1.7,0.8
			c-1.3,0-2.1-1-2.1-2.2c0-1.4,1-2.5,2.4-2.5c1.5,0,2.4,1.2,2.4,3c0,1.6-0.5,2.7-1.2,3.4c-0.6,0.5-1.3,0.9-2.1,1
			c-0.4,0.1-0.7,0.1-0.9,0.1V220.2z M37,216.1c0,0.9,0.5,1.5,1.4,1.5c0.6,0,1.2-0.3,1.4-0.7c0.1-0.1,0.1-0.2,0.1-0.4
			c0-1.2-0.5-2.2-1.5-2.2C37.5,214.3,37,215.1,37,216.1z"/>
		<path class="st2" d="M46,214.5h-2.7l-0.3,1.8c0.2,0,0.3,0,0.6,0c0.6,0,1.1,0.1,1.5,0.4c0.6,0.3,1,0.9,1,1.8c0,1.4-1.1,2.4-2.7,2.4
			c-0.8,0-1.4-0.2-1.8-0.4l0.2-0.7c0.3,0.2,0.9,0.4,1.5,0.4c0.9,0,1.7-0.6,1.7-1.6c0-0.9-0.6-1.6-2.1-1.6c-0.4,0-0.7,0-1,0.1
			l0.5-3.4H46V214.5z"/>
	</g>
	<path class="st1" d="M50.5,190.1h4 M456.3,190.1h-4.1"/>
	<g>
		<path class="st2" d="M43.8,187.9L43.8,187.9l-1.3,0.7l-0.2-0.7l1.6-0.8h0.8v7.2h-0.9V187.9z"/>
	</g>
	<path class="st1" d="M50.5,324.1h405.8 M50.5,190.1h405.8 M50.5,324.1v-134 M456.3,324.1v-134"/>
	<polyline class="st5" points="50.5,221.4 54.5,222 58.6,220.9 62.6,219 66.7,221.6 70.7,228.7 74.8,225.1 78.9,223.8 82.9,221.1 
		87,226.3 91,226 95.1,222.1 99.1,219.5 103.2,222.4 107.3,223 111.3,222.6 115.4,221.4 119.4,220.5 123.5,221.7 127.6,221.6 
		131.6,221.9 135.7,220.3 139.7,220 143.8,224.1 147.8,218.8 151.8,225.2 156,222 160,223.4 164.1,224.3 168.1,223.6 172.2,219.7 
		176.2,222.2 180.3,222.4 184.4,220.3 188.4,221.5 192.5,224.4 196.5,219.9 200.6,221.5 204.7,221.2 208.7,222.5 212.8,216.4 
		216.8,218.9 220.9,221.8 224.9,218.9 229,221.1 233.1,219.5 237.1,221.9 241.2,222.7 245.2,222.1 249.3,219.9 253.3,222.1 
		257.4,222.9 261.5,218.9 265.5,221.9 269.6,223.6 273.6,220.4 277.6,217.2 281.8,219.9 285.8,221.6 289.9,219.4 293.9,217.9 
		298,220.2 302,220.3 306.1,220.2 310.2,221.5 314.2,223.3 318.3,220.5 322.3,219.9 326.3,221.3 330.5,216.2 334.5,221.8 
		338.6,220.7 342.6,222 346.7,219 350.7,217.1 354.7,218.7 358.9,221.8 362.9,218 367,220.9 371,219.4 375,219.2 379.1,217.2 
		383.2,224.4 387.3,220.3 391.3,218.8 395.4,220.7 399.4,220.2 403.4,219.4 407.6,216.3 411.6,220.3 415.7,218.5 419.7,217.7 
		423.7,218.5 427.8,218.1 431.9,212.6 436,212.5 440,214.7 444.1,215.1 448.1,213.4 452.1,214.3 	"/>
	<g>
		<path class="st2" d="M210.6,350.3c-0.4,0.2-1.1,0.4-2,0.4c-2.1,0-3.7-1.3-3.7-3.8c0-2.3,1.6-3.9,3.9-3.9c0.9,0,1.5,0.2,1.8,0.3
			l-0.2,0.8c-0.4-0.2-0.9-0.3-1.5-0.3c-1.7,0-2.9,1.1-2.9,3.1c0,1.8,1,3,2.9,3c0.6,0,1.2-0.1,1.6-0.3L210.6,350.3z"/>
		<path class="st2" d="M216.6,347.8c0,2-1.4,2.8-2.7,2.8c-1.4,0-2.6-1.1-2.6-2.7c0-1.8,1.2-2.8,2.6-2.8
			C215.6,345.1,216.6,346.2,216.6,347.8z M212.4,347.9c0,1.2,0.7,2,1.6,2c0.9,0,1.6-0.9,1.6-2.1c0-0.9-0.5-2.1-1.6-2.1
			C212.9,345.8,212.4,346.9,212.4,347.9z"/>
		<path class="st2" d="M217.8,346.7c0-0.6,0-1,0-1.4h0.9l0.1,0.9h0c0.3-0.5,0.9-1,1.8-1c0.7,0,1.9,0.4,1.9,2.3v3.2h-1v-3.1
			c0-0.9-0.3-1.6-1.2-1.6c-0.6,0-1.1,0.5-1.3,1c0,0.1-0.1,0.3-0.1,0.5v3.2h-1V346.7z"/>
		<path class="st2" d="M225.1,343.7v1.5h1.4v0.7h-1.4v2.9c0,0.7,0.2,1,0.7,1c0.3,0,0.4,0,0.6-0.1l0,0.7c-0.2,0.1-0.5,0.1-0.9,0.1
			c-0.5,0-0.8-0.1-1-0.4c-0.3-0.3-0.4-0.8-0.4-1.4V346h-0.8v-0.7h0.8v-1.3L225.1,343.7z"/>
		<path class="st2" d="M227.6,346.9c0-0.6,0-1.2,0-1.7h0.8l0,1h0c0.2-0.7,0.8-1.2,1.5-1.2c0.1,0,0.2,0,0.3,0v0.9c-0.1,0-0.2,0-0.3,0
			c-0.7,0-1.2,0.5-1.3,1.2c0,0.1,0,0.3,0,0.5v2.8h-1V346.9z"/>
		<path class="st2" d="M236,347.8c0,2-1.4,2.8-2.7,2.8c-1.4,0-2.6-1.1-2.6-2.7c0-1.8,1.2-2.8,2.6-2.8C235,345.1,236,346.2,236,347.8
			z M231.8,347.9c0,1.2,0.7,2,1.6,2c0.9,0,1.6-0.9,1.6-2.1c0-0.9-0.5-2.1-1.6-2.1C232.3,345.8,231.8,346.9,231.8,347.9z"/>
		<path class="st2" d="M237.3,342.7h1v7.8h-1V342.7z"/>
		<path class="st2" d="M242.2,347c0-0.7,0-1.2,0-1.7h0.9l0,0.9h0c0.4-0.7,1-1,1.9-1c1.3,0,2.3,1.1,2.3,2.7c0,1.9-1.2,2.9-2.4,2.9
			c-0.7,0-1.3-0.3-1.6-0.8h0v2.9h-1V347z M243.2,348.4c0,0.1,0,0.3,0,0.4c0.2,0.7,0.8,1.1,1.5,1.1c1,0,1.6-0.8,1.6-2.1
			c0-1.1-0.6-2-1.6-2c-0.7,0-1.3,0.5-1.5,1.2c0,0.1-0.1,0.3-0.1,0.4V348.4z"/>
		<path class="st2" d="M251.4,350.5l-0.1-0.7h0c-0.3,0.4-0.9,0.8-1.6,0.8c-1.1,0-1.6-0.8-1.6-1.5c0-1.3,1.1-2,3.2-2V347
			c0-0.4-0.1-1.2-1.2-1.2c-0.5,0-1,0.2-1.4,0.4l-0.2-0.6c0.4-0.3,1.1-0.5,1.8-0.5c1.6,0,2,1.1,2,2.2v2c0,0.5,0,0.9,0.1,1.3H251.4z
			 M251.3,347.8c-1.1,0-2.3,0.2-2.3,1.2c0,0.6,0.4,0.9,0.9,0.9c0.7,0,1.1-0.4,1.3-0.9c0-0.1,0.1-0.2,0.1-0.3V347.8z"/>
		<path class="st2" d="M253.8,346.9c0-0.6,0-1.2,0-1.7h0.8l0,1h0c0.2-0.7,0.8-1.2,1.5-1.2c0.1,0,0.2,0,0.3,0v0.9c-0.1,0-0.2,0-0.3,0
			c-0.7,0-1.2,0.5-1.3,1.2c0,0.1,0,0.3,0,0.5v2.8h-1V346.9z"/>
		<path class="st2" d="M260.4,350.5l-0.1-0.7h0c-0.3,0.4-0.9,0.8-1.6,0.8c-1.1,0-1.6-0.8-1.6-1.5c0-1.3,1.1-2,3.2-2V347
			c0-0.4-0.1-1.2-1.2-1.2c-0.5,0-1,0.2-1.4,0.4l-0.2-0.6c0.4-0.3,1.1-0.5,1.8-0.5c1.6,0,2,1.1,2,2.2v2c0,0.5,0,0.9,0.1,1.3H260.4z
			 M260.2,347.8c-1.1,0-2.3,0.2-2.3,1.2c0,0.6,0.4,0.9,0.9,0.9c0.7,0,1.1-0.4,1.3-0.9c0-0.1,0.1-0.2,0.1-0.3V347.8z"/>
		<path class="st2" d="M262.7,346.7c0-0.6,0-1,0-1.4h0.8l0,0.9h0c0.3-0.5,0.8-1,1.7-1c0.7,0,1.3,0.4,1.5,1.1h0
			c0.2-0.3,0.4-0.5,0.6-0.7c0.3-0.2,0.7-0.4,1.2-0.4c0.7,0,1.8,0.5,1.8,2.3v3.1h-0.9v-3c0-1-0.4-1.6-1.2-1.6c-0.6,0-1,0.4-1.1,0.9
			c0,0.1-0.1,0.3-0.1,0.5v3.3h-0.9v-3.2c0-0.8-0.4-1.5-1.1-1.5c-0.6,0-1,0.5-1.2,1c-0.1,0.1-0.1,0.3-0.1,0.5v3.2h-0.9V346.7z"/>
		<path class="st2" d="M272.5,348.1c0,1.3,0.9,1.9,1.8,1.9c0.7,0,1.1-0.1,1.5-0.3l0.2,0.7c-0.3,0.2-0.9,0.3-1.8,0.3
			c-1.6,0-2.6-1.1-2.6-2.7s0.9-2.9,2.5-2.9c1.7,0,2.2,1.5,2.2,2.5c0,0.2,0,0.4,0,0.5H272.5z M275.3,347.4c0-0.6-0.3-1.6-1.3-1.6
			c-1,0-1.4,0.9-1.5,1.6H275.3z"/>
		<path class="st2" d="M278.6,343.7v1.5h1.4v0.7h-1.4v2.9c0,0.7,0.2,1,0.7,1c0.3,0,0.4,0,0.6-0.1l0,0.7c-0.2,0.1-0.5,0.1-0.9,0.1
			c-0.5,0-0.8-0.1-1-0.4c-0.3-0.3-0.4-0.8-0.4-1.4V346h-0.8v-0.7h0.8v-1.3L278.6,343.7z"/>
		<path class="st2" d="M281.6,348.1c0,1.3,0.9,1.9,1.8,1.9c0.7,0,1.1-0.1,1.5-0.3l0.2,0.7c-0.3,0.2-0.9,0.3-1.8,0.3
			c-1.6,0-2.6-1.1-2.6-2.7s0.9-2.9,2.5-2.9c1.7,0,2.2,1.5,2.2,2.5c0,0.2,0,0.4,0,0.5H281.6z M284.5,347.4c0-0.6-0.3-1.6-1.3-1.6
			c-1,0-1.4,0.9-1.5,1.6H284.5z"/>
		<path class="st2" d="M286.6,346.9c0-0.6,0-1.2,0-1.7h0.8l0,1h0c0.2-0.7,0.8-1.2,1.5-1.2c0.1,0,0.2,0,0.3,0v0.9c-0.1,0-0.2,0-0.3,0
			c-0.7,0-1.2,0.5-1.3,1.2c0,0.1,0,0.3,0,0.5v2.8h-1V346.9z"/>
		<path class="st2" d="M296.4,350.4c-0.3,0.1-0.8,0.3-1.5,0.3c-1.6,0-2.7-1.1-2.7-2.7c0-1.6,1.1-2.8,2.9-2.8c0.6,0,1.1,0.1,1.3,0.3
			l-0.2,0.7c-0.2-0.1-0.6-0.3-1.1-0.3c-1.2,0-1.9,0.9-1.9,2c0,1.2,0.8,2,1.9,2c0.6,0,0.9-0.1,1.2-0.3L296.4,350.4z"/>
	</g>
	<g>
		<path class="st2" d="M11,267.4c-0.1-0.6-0.2-1.3-0.2-2c0-1.4,0.3-2.4,0.9-3c0.6-0.7,1.5-1,2.7-1c1.2,0,2.2,0.4,2.9,1.1
			c0.7,0.7,1.1,1.8,1.1,3.3c0,0.7,0,1.3-0.1,1.7H11z M17.6,266.4c0-0.2,0.1-0.6,0.1-1c0-2-1.1-3.2-3.2-3.2c-1.8,0-2.9,1-2.9,3
			c0,0.5,0,0.9,0.1,1.1H17.6z"/>
		<path class="st2" d="M14.9,256.2v2.9h2.7v-3.2h0.8v4.2h-7.4v-4h0.8v3.1h2.3v-2.9H14.9z"/>
		<path class="st2" d="M11.7,253.2v2.3h-0.8V250h0.8v2.3h6.6v1H11.7z"/>
	</g>
	<g>
		<path class="st2" d="M0.6,186.2c0.5-0.1,1.6-0.2,2.6-0.2c1.2,0,2,0.1,2.6,0.5c0.6,0.3,1.1,0.9,1.1,1.7c0,0.8-0.5,1.5-1.5,1.9v0
			c1,0.3,1.8,1,1.8,2.2c0,0.8-0.4,1.4-0.9,1.9c-0.6,0.5-1.7,0.8-3.5,0.8c-1,0-1.7-0.1-2.2-0.1V186.2z M2.6,189.6h0.7
			c1.1,0,1.6-0.4,1.6-1.1c0-0.7-0.5-1-1.4-1c-0.4,0-0.7,0-0.9,0.1V189.6z M2.6,193.6c0.2,0,0.4,0,0.8,0c0.9,0,1.7-0.3,1.7-1.3
			c0-0.9-0.8-1.3-1.8-1.3H2.6V193.6z"/>
	</g>
</g>
</svg>
